<?xml version="1.0" encoding="UTF-8"?>
<svg class="svg-inline--fa fa-square fa-w-14" width="448" height="448" aria-hidden="true" data-icon="square" data-prefix="fas" focusable="false" role="img" version="1.1" viewBox="0 0 448 448" xmlns="http://www.w3.org/2000/svg">
  <path d="m48 0c-26.5 0-48 21.5-48 48v352c0 26.5 21.5 48 48 48h352c26.5 0 48-21.5 48-48v-352c0-26.5-21.5-48-48-48zm176 71.494c26.321 0 47.658 21.337 47.658 47.658 0 21.339-14.027 39.399-33.361 45.473v6.9512h35.744c3.9479 0 7.1484 3.2006 7.1484 7.1484v14.297c0 3.9478-3.2006 7.1504-7.1484 7.1504h-35.744v147.06c40.922-3.902 84.314-27.129 96.055-66.045h-26.371c-6.3689 0-9.5584-7.6994-5.0547-12.203l39.93-39.932c2.7922-2.7916 7.3198-2.7916 10.111 0l39.93 39.932c4.5031 4.5031 1.3142 12.203-5.0547 12.203h-23.998c-11.561 56.415-72.447 95.316-139.84 95.316-63.601 0-127.69-36.008-139.84-95.316h-23.998c-6.3689 0-9.5578-7.7-5.0547-12.203l39.932-39.932c2.7922-2.7916 7.3178-2.7916 10.109 0l39.932 39.932c4.5037 4.5031 1.3142 12.203-5.0547 12.203h-26.373c11.713 38.827 55.064 62.136 96.055 66.045v-147.06h-35.744c-3.9479-1e-5 -7.1484-3.2026-7.1484-7.1504v-14.297c0-3.9479 3.2006-7.1484 7.1484-7.1484h35.744v-6.9512c-19.335-6.0728-33.361-24.134-33.361-45.473 0-26.321 21.337-47.658 47.658-47.658zm0 28.596c-10.512 0-19.062 8.551-19.062 19.062 0 10.512 8.551 19.062 19.062 19.062s19.062-8.551 19.062-19.062c0-10.512-8.551-19.062-19.062-19.062z"/>
</svg>
