<?xml version="1.0" encoding="UTF-8"?>
<svg class="svg-inline--fa fa-facebook-square fa-w-14" width="448" height="448" aria-hidden="true" data-icon="facebook-square" data-prefix="fab" focusable="false" role="img" version="1.1" viewBox="0 0 448 448" xmlns="http://www.w3.org/2000/svg">
  <path d="m400 0h-352a48 48 0 0 0-48 48v352a48 48 0 0 0 48 48h137.25v-152.31h-63v-71.69h63v-54.64c0-62.15 37-96.48 93.67-96.48 27.14 0 55.52 4.84 55.52 4.84v61h-31.27c-30.81 0-40.42 19.12-40.42 38.73v46.55h68.78l-11 71.69h-57.78v152.31h137.25a48 48 0 0 0 48-48v-352a48 48 0 0 0-48-48z" fill="currentColor"/>
</svg>
