<?xml version="1.0" encoding="UTF-8"?>
<svg class="svg-inline--fa fa-square fa-w-14" width="448" height="448" aria-hidden="true" data-icon="square" data-prefix="fas" focusable="false" role="img" version="1.1" viewBox="0 0 448 448" xmlns="http://www.w3.org/2000/svg">
  <path d="m48 0c-26.5 0-48 21.5-48 48v352c0 26.5 21.5 48 48 48h352c26.5 0 48-21.5 48-48v-352c0-26.5-21.5-48-48-48zm157.55 60.953 16.67 9.8398c-8.2178 17.469-7.2805 24.021-6.8438 25.477 6.6092-0.16741 14.559 1.2149 23.592 4.1992a57.088 57.088 0 0 1 34.852 75.795c4.5032 1.5577 8.9631 3.3228 13.379 5.293 34.858 15.475 56.601 43.011 63.516 53.652 16.676 24.355 26.137 52.654 26.137 80.736 0 23.059-3.6392 44.168-10.627 62.766-2.2128 5.8595-7.9702 9.26-13.371 8.1172-4.9788-0.90258-8.094-6.7549-6.2598-11.457 8.145-20.898 10.832-42.466 10.832-59.426a113.62 113.62 0 0 0-2.0391-20.693c-0.47312 0.77156-0.82163 1.6159-1.3457 2.3438-12.585 17.855-36.788 24.669-61.682 17.354-57.408-16.865-129.58-2.7745-171.96 28.088l17.949-53.943-34.08 43.549a129.77 129.77 0 0 0 11.473 38.674c4.5493 9.6008 0.33394 13.276-2.7305 14.637-3.472 1.5431-10.088 2.0395-14.295-5.334a108.16 108.16 0 0 1-10.6-27.34l-16.973 21.691v-24.486c0-40.594-5.3e-4 -91.065 45.602-137.14a155.77 155.77 0 0 1 33.693-25.869l-6.5-0.39453c-20.293-1.1937-35.84-18.087-34.668-37.74l1.7168-26.699c0 4.542 0.1011-33.395 36.939-33.395 1.4994 0-0.34044-0.088 29.889 1.6953a37.122 37.122 0 0 1 6.0332 0.91015c5.4009-8.2542 11.391-16.618 17.717-25.396zm-57.066 55.086c0.44401 0.0364-8.9225-0.61814-9.6504 8.2402l-1.7539 26.684a8.9384 8.9384 0 0 0 8.5586 9.3106l16.291 0.97461a67.693 67.693 0 0 1-0.23437-14.244l-9.5566-0.56836 1.0117-15.861 11.428 0.67773a105.07 105.07 0 0 1 5.0957-13.953zm60.881 58.027a7.5555 7.5555 0 0 0-4.9199 1.623 6.9586 6.9586 0 0 0-1.2676 9.7676c0.0655 0.10191 13.539 16.115 13.539 16.115l-12.309 9.6738a5.3718 5.3718 0 0 0-0.99609 7.5274c0.0582 0.0801 2.7656 3.2969 2.7656 3.2969a5.6411 5.6411 0 0 0 7.709 0.72852l12.439-9.791 10.291 12.186-25.162 19.783a5.3718 5.3718 0 0 0-0.97656 7.5274l11.486 13.566a5.8886 5.8886 0 0 0 8.1016 0.78711l25.055-19.652 7.0449 8.3633a7.6501 7.6501 0 0 0 10.445 1.0117 6.9732 6.9732 0 0 0 1.2676-9.7832l-59.025-70.109a7.5555 7.5555 0 0 0-5.4883-2.6211zm-11.98 168.58a13.102 13.102 0 0 1 13.102 13.102 13.102 13.102 0 1 1-13.102-13.102zm71.863 0a13.102 13.102 0 0 1 13.104 13.102 13.102 13.102 0 1 1-13.104-13.102z"/>
</svg>
