<?xml version="1.0" encoding="UTF-8"?>
<svg class="svg-inline--fa fa-square fa-w-14" width="448" height="448" aria-hidden="true" data-icon="square" data-prefix="fas" focusable="false" role="img" version="1.1" viewBox="0 0 448 448" xmlns="http://www.w3.org/2000/svg">
  <path d="m48 0c-26.5 0-48 21.5-48 48v352c0 26.5 21.5 48 48 48h352c26.5 0 48-21.5 48-48v-352c0-26.5-21.5-48-48-48h-352zm32.543 90.105h286.91c15.84 0 28.691 12.851 28.691 28.691v210.41c0 15.84-12.851 28.691-28.691 28.691h-286.91c-15.84 0-28.691-12.851-28.691-28.691v-210.41c0-15.84 12.851-28.691 28.691-28.691zm0 28.691v210.41h286.91v-210.41h-286.91zm95.639 28.693c21.1 0 38.254 17.154 38.254 38.254 0 21.1-17.154 38.256-38.254 38.256s-38.256-17.156-38.256-38.256c0-21.1 17.156-38.254 38.256-38.254zm90.855 19.127h66.947c2.63 0 4.7812 2.1512 4.7812 4.7812v9.5644c1e-5 2.63-2.1512 4.7812-4.7812 4.7812h-66.947c-2.63 0-4.7812-2.1512-4.7812-4.7812v-9.5644c0-2.6301 2.1512-4.7812 4.7812-4.7812zm0 38.256h66.947c2.63 0 4.7812 2.1512 4.7812 4.7812v9.5644c1e-5 2.63-2.1512 4.7812-4.7812 4.7812h-66.947c-2.63 0-4.7812-2.1512-4.7812-4.7812v-9.5644c0-2.63 2.1512-4.7812 4.7812-4.7812zm-117.63 38.254c6.8142 0 10.7 4.7832 26.779 4.7832 15.601 0 20.322-4.7832 26.777-4.7832 22.176 0 40.168 15.422 40.168 34.43v11.477c0 6.336-5.9767 11.477-13.389 11.477h-107.12c-7.412 0-13.389-5.1405-13.389-11.477v-11.477c-1e-5 -19.008 17.992-34.43 40.168-34.43zm117.63 0h66.947c2.63 0 4.7812 2.1531 4.7812 4.7832v9.5625c1e-5 2.6301-2.1512 4.7832-4.7812 4.7832h-66.947c-2.63 0-4.7812-2.1531-4.7812-4.7832v-9.5625c0-2.6301 2.1512-4.7832 4.7812-4.7832z"/>
</svg>
