<svg width="448" height="448" version="1.1" viewBox="0 0 448 448" xmlns="http://www.w3.org/2000/svg"><path d="m64 0c-35.3 0-64 28.7-64 64v320c0 35.3 28.7 64 64 64h320c35.3 0 64-28.7 64-64v-320c0-35.3-28.7-64-64-64h-320zm159.85 51.18c44.027-0.028928 88.113 5.4481 112.22 16.518 0 0 49.139 21.986 49.139 96.965 0 0 0.61628 55.309-6.9434 93.725-4.7826 24.376-42.504 51.066-85.779 56.234-15.505 1.8513-71.893 10.954-137.92-5.168-0.01198 3.5857 0.21908 7.1665 0.69336 10.721 5.0912 38.261 37.953 40.576 69.117 41.656 31.473 1.0028 59.475-7.791 59.475-7.791l1.3106 28.465s-21.983 11.801-61.17 13.961c-21.599 1.2342-48.444-0.53907-79.686-8.793-86.55-22.91-81.459-133.76-81.459-223.01 0-74.979 49.137-96.965 49.137-96.965 23.875-10.954 67.844-16.489 111.87-16.518zm-48.299 58.385c-15.206-0.40498-30.594 5.535-40.584 16.682-18.205 20.905-14.193 40.807-14.193 134.99h36.102v-88.094c0-38.338 49.369-39.802 49.369 5.3242v48.211h35.715v-48.211c0-45.126 49.369-43.662 49.369-5.3242v88.094h35.869c0-94.11 4.0886-113.94-14.193-134.99-19.825-22.139-61.48-23.914-80.07 4.7051l-8.9473 15.043-8.9492-15.043c-9.2567-14.232-24.28-20.982-39.486-21.387z"/></svg>
